# xmcd
#
# Track frame offsets: 
#        150
#        13510
#        38345
#        55711
#        69840
#        87687
#        98150
#        123871
#        141253
#        156351
#        175169
#        188938
#        212668
#        229934
#        249539
#        275438
#        296562
#        318060
#
# Disc length: 4479 seconds
#
# Revision: 2
# Processed by: cddbd v1.5.2PL0 Copyright (c) Steve Scherf et al.
# Submitted via: ExactAudioCopy v0.95a5
#
DISCID=f6117d12
DTITLE=Viva la Salsa - Numero Dos - CD 1
DYEAR=2005
DGENRE=Salsa
TTITLE0=Jorge Ben - Mas Que Nada
TTITLE1=Paquito Guzman - Ser Amantes
TTITLE2=Ibrahim Ferrer - La Chica Del Granizado
TTITLE3=Afro-Cuban Allstars - Despues De Esta Noche
TTITLE4=Fiebre Latina - Abecedario De Amor
TTITLE5=Ritmo Latino - La Bamba
TTITLE6=Chispa y los Complices - El Mismo Loco
TTITLE7=Luis Enrique - Desperado
TTITLE8=Marvin Santiago - Fuego A La Jicotea
TTITLE9=Papaluca - Si No Te Mueve Te Muevo
TTITLE10=Moleque De Rua - Ze do Brasil
TTITLE11=Doris Lavin - Potpouuri 50
TTITLE12=Havanna Mambo - Personalidad
TTITLE13=Djavan - Limao
TTITLE14=Sonoc de las Tunas - Guantanamera
TTITLE15=Son Candela - Como les Gusta
TTITLE16=Ritmo Alegria - Pancho Fantasia
TTITLE17=Ronaldos Revenge - Ronaldos Revenge
EXTD=YEAR: 2005
EXTT0=
EXTT1=
EXTT2=
EXTT3=
EXTT4=
EXTT5=
EXTT6=
EXTT7=
EXTT8=
EXTT9=
EXTT10=
EXTT11=
EXTT12=
EXTT13=
EXTT14=
EXTT15=
EXTT16=
EXTT17=
PLAYORDER=
